<svg xmlns="http://www.w3.org/2000/svg" version="1.1" xmlns:xlink="http://www.w3.org/1999/xlink" x="0" y="0" viewBox="0 0 426 426.798" style="enable-background:new 0 0 512 512" xml:space="preserve" class=""><g><path d="M139.066 192.133c2.829.004 5.543-1.121 7.543-3.121s3.125-4.715 3.121-7.543c0-5.89 4.778-10.668 10.668-10.668 5.891 0 10.668 4.777 10.668 10.668s4.774 10.664 10.664 10.664c5.895 0 10.668-4.774 10.668-10.664 0-17.676-14.328-32-32-32-17.671 0-32 14.324-32 32a10.66 10.66 0 0 0 10.668 10.664zM283.629 262.594c-39.836 19.914-99.95 19.914-139.793 0-5.27-2.637-11.676-.5-14.313 4.77-2.632 5.269-.5 11.679 4.77 14.312a180.655 180.655 0 0 0 79.437 17.25 180.697 180.697 0 0 0 79.438-17.25c5.27-2.633 7.406-9.043 4.773-14.313-2.636-5.27-9.043-7.406-14.312-4.77zm0 0" fill="#000000" opacity="1" data-original="#000000" class=""></path><path d="M395.066 170.8h-10.668v-32c-.027-29.44-23.89-53.304-53.332-53.331h-32V62.168c14.692-5.191 23.508-20.219 20.872-35.578C317.3 11.227 303.983 0 288.397 0c-15.586 0-28.902 11.227-31.539 26.59-2.636 15.36 6.18 30.387 20.871 35.578v23.3h-128v-23.3c14.696-5.191 23.508-20.219 20.875-35.578C167.97 11.227 154.652 0 139.066 0c-15.586 0-28.906 11.227-31.539 26.59-2.636 15.36 6.176 30.387 20.871 35.578v23.3h-32c-29.441.032-53.3 23.891-53.332 53.333v32H32.398c-17.664.02-31.98 14.336-32 32v42.668c.02 17.664 14.336 31.98 32 32h10.668v42.664c.032 29.445 23.891 53.305 53.332 53.336h53.332v42.664a10.675 10.675 0 0 0 5.5 9.328 10.662 10.662 0 0 0 10.82-.285l82.743-51.707h82.273c29.442-.028 53.305-23.89 53.332-53.336v-42.664h10.668c17.664-.02 31.98-14.336 32-32V202.8c-.02-17.664-14.336-31.98-32-32zM288.398 21.47c5.891 0 10.668 4.773 10.668 10.664 0 5.894-4.777 10.668-10.668 10.668-5.89 0-10.668-4.774-10.668-10.668.012-5.883 4.782-10.653 10.668-10.664zm-149.332 0c5.891 0 10.664 4.773 10.664 10.664 0 5.894-4.773 10.668-10.664 10.668s-10.668-4.774-10.668-10.668c.008-5.887 4.778-10.656 10.668-10.664zM32.398 256.133c-5.886-.004-10.66-4.778-10.668-10.664V202.8c.008-5.887 4.782-10.66 10.668-10.668h10.668v64zm330.668 64c-.02 17.668-14.336 31.984-32 32H245.73c-1.996 0-3.953.562-5.644 1.625l-69.02 43.125V362.8a10.671 10.671 0 0 0-10.668-10.668h-64c-17.664-.016-31.98-14.332-32-32V138.8c.02-17.664 14.336-31.98 32-32h234.668c17.664.02 31.98 14.336 32 32zm42.664-74.664c-.007 5.886-4.777 10.656-10.664 10.664h-10.668v-64h10.668c5.887.012 10.657 4.781 10.664 10.668zm0 0" fill="#000000" opacity="1" data-original="#000000" class=""></path><path d="M267.066 149.469c-17.664.02-31.98 14.336-32 32 0 5.89 4.774 10.664 10.664 10.664 5.895 0 10.668-4.774 10.668-10.664s4.778-10.668 10.668-10.668 10.664 4.777 10.664 10.668 4.778 10.664 10.668 10.664c5.891 0 10.668-4.774 10.668-10.664-.02-17.664-14.336-31.98-32-32zm0 0" fill="currentColor" opacity="1" data-original="#000000" class=""></path></g></svg>